<?xml version="1.0" encoding="utf-8"?>
<!-- Generator: Adobe Illustrator 26.0.2, SVG Export Plug-In . SVG Version: 6.00 Build 0)  -->
<svg version="1.1" id="隔离模式" xmlns="http://www.w3.org/2000/svg" xmlns:xlink="http://www.w3.org/1999/xlink" x="0px"
	 y="0px" viewBox="0 0 90 95" style="enable-background:new 0 0 90 95;" xml:space="preserve">
<style type="text/css">
	.st0{fill-rule:evenodd;clip-rule:evenodd;fill:#EF4136;}
	.st1{fill:#ed8184;}
	.st2{fill-rule:evenodd;clip-rule:evenodd;fill:#FFFFFF;}
	.st3{fill:#20263A;}
</style>
<g>
	<g>
		<path class="st0" d="M53.8,60.5c2.4-2.9,4.7-7.1,5.1-13.1c0.1-0.8,0.5-1.4,1.2-1.7c24-19.2,18.5-34,18.5-34s-14.8-5.5-34,18.5l0,0
			c-0.3,0.7-0.9,1.1-1.7,1.2c-6,0.4-10.2,2.6-13.1,5.1c-2.2,1.8-0.3,5.8,2.8,5.8c2.9,0.1,5.4,0.6,6.7,0.9l-0.5,1.2
			c0,0,0.3,2.2,2.7,4.5c2.3,2.4,4.5,2.7,4.5,2.7l1.2-0.5c0.3,1.3,0.8,3.8,0.9,6.7C48,60.8,51.9,62.7,53.8,60.5z M57.3,32.9
			c-2.2-2.2-2.2-5.7,0-7.9c2.2-2.2,5.7-2.2,7.9,0c2.2,2.2,2.2,5.7,0,7.9C63,35.1,59.5,35.1,57.3,32.9z"/>
		<path class="st1" d="M80.8,18c-0.1,1-0.3,2.2-0.6,3.4c4.8,7,7.3,15.2,7.3,23.9c0,11.3-4.4,22-12.4,30c-8,8-18.7,12.4-30,12.4
			c-11.3,0-22-4.4-30-12.4c-8-8-12.4-18.7-12.4-30s4.4-22,12.4-30c8-8,18.7-12.4,30-12.4c8.6,0,16.8,2.5,23.7,7.2
			c1.2-0.3,2.4-0.5,3.4-0.6c-7.6-5.7-17-9.1-27.2-9.1c-24.9,0-45,20.1-45,45s20.1,45,45,45s45-20.1,45-45C90,35.1,86.6,25.6,80.8,18
			z"/>
		<path class="st2" d="M74.1,65.2c-5.3-5.3-14-5.3-19.3,0c-2.6,2.6-4,6.1-4,9.5c2.9-1.1,6.2-0.4,8.5,1.9c1.6,1.6,2.4,3.8,2.4,5.9
			c-0.3-1.6-1-3-2.2-4.2c-3.1-3.1-8.2-3.1-11.4,0c-0.2,0.2-0.3,0.3-0.4,0.5c1.7-0.5,3.5,0,4.9,1.3c0.8,0.8,1.3,1.8,1.4,2.8
			c-0.2-0.4-0.5-0.8-0.9-1.2c-1.9-1.9-5.1-1.9-7,0c-0.6,0.6-1,1.3-1.3,2.1c-0.6-0.6-1.3-1.4-2.1-1.9c1.2-0.4,2.3-1,3.2-1.9
			c3-3,3-7.9,0-10.9c-2.6-2.6-6.6-3-9.6-1.1c-0.2,0.1-0.3,0.2-0.5,0.3c-0.2,0.1-0.4,0.3-0.6,0.5c1.3,0.3,2.5,1,3.6,2
			c2.7,2.7,3,7,0.8,10c1.6-2.9,1.1-6.8-1.3-9.2c-2.3-2.3-5.8-3-8.8-1.5l0.2-0.1c1.7-1.6,3.9-2.2,6.1-2C32.2,60.7,36.8,57,41.4,51
			c-0.4-0.3-0.8-0.6-1.2-1c-0.4-0.4-0.8-0.8-1-1.2c-6.8,4.7-11.1,9.3-16.7,5.8c0.2,2.1-0.4,4.4-2,6.1l-0.1,0.2
			c1.5-3,0.8-6.4-1.5-8.8c-2.4-2.4-6.3-2.9-9.2-1.3c3-2.2,7.3-1.9,10,0.8c1,1,1.7,2.3,2,3.6c0.2-0.2,0.3-0.4,0.5-0.6
			c0.1-0.1,0.2-0.3,0.3-0.5c1.9-3,1.5-7-1.1-9.6c-3-3-7.9-3-10.9,0c-0.9,0.9-1.6,2.1-1.9,3.2c-0.6-0.8-1.3-1.6-1.9-2.1l0,0
			c0.8-0.2,1.5-0.6,2.1-1.2c1.9-1.9,1.9-5.1,0-7.1c-0.4-0.4-0.8-0.7-1.2-0.9c1,0.1,2,0.6,2.8,1.4c1.3,1.3,1.7,3.2,1.3,4.9
			c0.2-0.1,0.3-0.3,0.5-0.5c3.1-3.1,3.1-8.2,0-11.4c-1.2-1.2-2.7-1.9-4.2-2.2c2.1-0.1,4.3,0.7,5.9,2.3c2.3,2.3,2.9,5.6,1.9,8.5
			c3.5,0,6.9-1.4,9.5-4c5.3-5.3,5.3-14,0-19.3c-1.5-1.5-3.3-2.6-5.2-3.2c-1.3,1.1-2.6,2.2-3.9,3.4c-7.8,7.8-12,18.1-12,29
			s4.3,21.3,12,29c7.8,7.8,18.1,12,29,12s21.3-4.3,29-12c1.2-1.2,2.3-2.5,3.4-3.8C76.7,68.6,75.6,66.7,74.1,65.2z"/>
	</g>
	<path class="st3" d="M80.5,79.5l3.6-0.9l-1-3.2c-0.7-2.2-2.2-4-4.3-5.3c-1.9-1.1-4.2-1.7-6.9-1.7c-3.5,0-6.2,0.9-8.1,2.7
		c-0.2,0.2-0.4,0.4-0.5,0.5c-0.4-0.5-0.9-0.9-1.5-1.3c-1.1-0.7-2.2-1.2-3.3-1.4c-0.9-0.2-2.1-0.2-3.9-0.2h-5.4h-3.6H28.9l-0.5,2.7
		c-0.5-0.5-1.1-0.9-1.7-1.3c-1.9-1.1-4.2-1.7-6.9-1.7c-3.5,0-6.2,0.9-8.1,2.7c-1.9,1.8-2.9,4.2-2.9,6.8c0,1.6,0.4,3.1,1.2,4.3
		c0.1,0.2,0.3,0.4,0.4,0.6l-5,1l1.2,3.4c0.9,2.6,2.5,4.5,4.9,5.8c2.1,1.1,4.5,1.7,7.2,1.7c1,0,1.9-0.1,2.8-0.2H68
		c0.9,0.2,1.9,0.2,2.9,0.2c3.3,0,6.1-0.9,8.2-2.6c2.3-1.9,3.4-4.4,3.4-7.3c0-1.2-0.3-2.4-0.7-3.4C81.4,80.7,81,80.1,80.5,79.5z"/>
	<g>
		<path class="st1" d="M28.1,76.3l-5,1.3c-0.1-0.6-0.5-1-1.1-1.4c-0.6-0.3-1.2-0.5-1.9-0.5c-1.3,0-1.9,0.4-1.9,1.3
			c0,0.3,0.1,0.5,0.3,0.7c0.2,0.2,0.7,0.4,1.5,0.7l3.1,1.1c0.8,0.3,1.6,0.7,2.2,1.3c0.7,0.6,1.2,1.2,1.5,1.8
			c0.3,0.7,0.5,1.4,0.5,2.1c0,2-0.8,3.6-2.3,4.9c-1.5,1.3-3.6,1.9-6.2,1.9c-2.2,0-4.1-0.4-5.8-1.3c-1.6-0.9-2.8-2.3-3.4-4.1l5.6-1.1
			c0.5,1.4,1.7,2.1,3.6,2.1c0.8,0,1.4-0.1,1.7-0.4c0.4-0.3,0.5-0.6,0.5-1c0-0.2-0.1-0.4-0.2-0.6c-0.1-0.2-0.3-0.3-0.4-0.4
			c-0.2-0.1-0.9-0.4-2.2-0.8c-1.8-0.7-3-1.2-3.7-1.6c-0.7-0.4-1.3-1-1.8-1.7c-0.5-0.8-0.7-1.6-0.7-2.7c0-1.8,0.7-3.3,2-4.5
			c1.3-1.2,3.3-1.8,6-1.8c2,0,3.8,0.4,5.3,1.3C26.6,73.7,27.6,74.9,28.1,76.3z"/>
		<path class="st1" d="M43.4,86.8l-0.8,4.5H28.4l3.2-19.4h13.9l-0.7,4.3h-8.3l-0.5,3h7l-0.7,4.2h-7l-0.6,3.4H43.4z"/>
		<path class="st1" d="M51.9,84.1l-1.2,7.1H45l3.2-19.4h6.4c1.5,0,2.6,0.1,3.3,0.2c0.7,0.1,1.4,0.4,2.1,0.9c0.7,0.5,1.3,1.1,1.7,2
			c0.4,0.8,0.6,1.7,0.6,2.6c0,1.8-0.6,3.4-1.8,4.6c-1.2,1.3-2.9,1.9-5.1,1.9H51.9z M52.6,80h1.3c2,0,3.1-0.7,3.1-2.1
			c0-1.2-0.9-1.9-2.6-1.9h-1.2L52.6,80z"/>
		<path class="st1" d="M80.1,76.3l-5,1.3c-0.1-0.6-0.5-1-1.1-1.4c-0.6-0.3-1.2-0.5-1.9-0.5c-1.3,0-1.9,0.4-1.9,1.3
			c0,0.3,0.1,0.5,0.3,0.7c0.2,0.2,0.7,0.4,1.5,0.7l3.1,1.1c0.8,0.3,1.6,0.7,2.2,1.3c0.7,0.6,1.2,1.2,1.5,1.8
			c0.3,0.7,0.5,1.4,0.5,2.1c0,2-0.8,3.6-2.3,4.9c-1.5,1.3-3.6,1.9-6.2,1.9c-2.2,0-4.1-0.4-5.8-1.3c-1.6-0.9-2.8-2.3-3.4-4.1l5.6-1.1
			c0.5,1.4,1.7,2.1,3.6,2.1c0.8,0,1.4-0.1,1.7-0.4c0.4-0.3,0.5-0.6,0.5-1c0-0.2-0.1-0.4-0.2-0.6c-0.1-0.2-0.3-0.3-0.4-0.4
			s-0.9-0.4-2.2-0.8c-1.8-0.7-3-1.2-3.7-1.6c-0.7-0.4-1.3-1-1.8-1.7c-0.5-0.8-0.7-1.6-0.7-2.7c0-1.8,0.7-3.3,2-4.5
			c1.3-1.2,3.3-1.8,6-1.8c2,0,3.8,0.4,5.3,1.3C78.7,73.7,79.7,74.9,80.1,76.3z"/>
	</g>
</g>
</svg>
